<svg width="12" height="13" viewBox="0 0 12 13" fill="none" xmlns="http://www.w3.org/2000/svg">
    <path fill-rule="evenodd" clip-rule="evenodd" d="M5.98384 0.777659C6.0894 0.964958 6.07509 1.19679 5.94729 1.36969C5.41967 2.08349 5.16578 2.96297 5.23179 3.84815C5.2978 4.73333 5.67933 5.56542 6.30698 6.19308C6.93464 6.82073 7.76673 7.20226 8.65191 7.26827C9.5371 7.33428 10.4166 7.08039 11.1304 6.55277C11.3033 6.42498 11.5351 6.41066 11.7224 6.51622C11.9097 6.62178 12.0175 6.82751 11.9977 7.0416C11.8927 8.17859 11.466 9.26215 10.7675 10.1655C10.0691 11.0688 9.12787 11.7545 8.05394 12.1425C6.98001 12.5304 5.81781 12.6044 4.70334 12.3559C3.58887 12.1074 2.56822 11.5466 1.76082 10.7392C0.953414 9.93184 0.392655 8.91119 0.144154 7.79672C-0.104346 6.68225 -0.0303099 5.52005 0.357601 4.44613C0.745511 3.3722 1.43125 2.43095 2.33458 1.73253C3.23791 1.03411 4.32147 0.607396 5.45846 0.502323C5.67255 0.482539 5.87828 0.590359 5.98384 0.777659ZM4.46311 1.81774C3.93812 1.9918 3.44365 2.25398 3.00185 2.59557C2.26245 3.16725 1.70114 3.93769 1.38363 4.81673C1.06611 5.69578 1.00551 6.64707 1.20891 7.55931C1.41232 8.47154 1.87132 9.30697 2.53221 9.96786C3.19309 10.6287 4.02853 11.0877 4.94076 11.2911C5.85299 11.4946 6.80428 11.434 7.68333 11.1164C8.56237 10.7989 9.33281 10.2376 9.90449 9.49821C10.2461 9.05641 10.5083 8.56195 10.6823 8.03695C10.0163 8.29873 9.29501 8.41017 8.57079 8.35616C7.42504 8.27072 6.34801 7.77688 5.5356 6.96447C4.72318 6.15205 4.22934 5.07503 4.1439 3.92928C4.08989 3.20505 4.20133 2.48377 4.46311 1.81774Z" fill="currentColor"/>
</svg>
