<svg width="14" height="15" viewBox="0 0 14 15" fill="none" xmlns="http://www.w3.org/2000/svg">
    <path d="M7 0.5C7.32217 0.5 7.58334 0.761169 7.58334 1.08334V2.25001C7.58334 2.57218 7.32217 2.83335 7 2.83335C6.67784 2.83335 6.41667 2.57218 6.41667 2.25001L6.41667 1.08334C6.41667 0.761169 6.67783 0.5 7 0.5ZM2.04911 2.54904C2.27691 2.32124 2.64626 2.32124 2.87407 2.54904L3.70241 3.37738C3.93022 3.60519 3.93022 3.97454 3.70241 4.20235C3.4746 4.43016 3.10525 4.43016 2.87745 4.20235L2.04911 3.37401C1.8213 3.1462 1.8213 2.77685 2.04911 2.54904ZM11.9507 3.37401C12.1785 3.1462 12.1785 2.77685 11.9507 2.54904C11.7229 2.32124 11.3536 2.32124 11.1258 2.54904L10.2974 3.37738C10.0696 3.60519 10.0696 3.97454 10.2974 4.20235C10.5252 4.43016 10.8946 4.43016 11.1224 4.20235L11.9507 3.37401ZM6.10352e-05 7.49994C6.10352e-05 7.17777 0.261231 6.9166 0.583399 6.9166L1.75008 6.9166C2.07224 6.9166 2.33341 7.17777 2.33341 7.49994C2.33341 7.82211 2.07224 8.08328 1.75008 8.08328L0.583399 8.08328C0.261231 8.08328 6.10352e-05 7.82211 6.10352e-05 7.49994ZM12.25 6.9166C11.9279 6.9166 11.6667 7.17777 11.6667 7.49994C11.6667 7.82211 11.9279 8.08328 12.25 8.08328L13.4167 8.08328C13.7389 8.08328 14.0001 7.82211 14.0001 7.49994C14.0001 7.17777 13.7389 6.9166 13.4167 6.9166L12.25 6.9166ZM3.70241 10.7974C3.93022 11.0252 3.93022 11.3945 3.70241 11.6223L2.87407 12.4507C2.64626 12.6785 2.27691 12.6785 2.04911 12.4507C1.8213 12.2228 1.8213 11.8535 2.04911 11.6257L2.87745 10.7974C3.10525 10.5695 3.4746 10.5695 3.70241 10.7974ZM11.1224 10.7974C10.8946 10.5695 10.5252 10.5695 10.2974 10.7974C10.0696 11.0252 10.0696 11.3945 10.2974 11.6223L11.1258 12.4507C11.3536 12.6785 11.7229 12.6785 11.9507 12.4507C12.1785 12.2228 12.1785 11.8535 11.9507 11.6257L11.1224 10.7974ZM7 12.1666C7.32217 12.1666 7.58334 12.4278 7.58334 12.75L7.58334 13.9167C7.58334 14.2388 7.32217 14.5 7 14.5C6.67784 14.5 6.41667 14.2388 6.41667 13.9167L6.41667 12.75C6.41667 12.4278 6.67783 12.1666 7 12.1666ZM10.77 7.49994C10.77 9.58163 9.08243 11.2692 7.00074 11.2692C4.91905 11.2692 3.23151 9.58163 3.23151 7.49994C3.23151 5.41825 4.91905 3.73071 7.00074 3.73071C9.08243 3.73071 10.77 5.41825 10.77 7.49994ZM9.76997 7.49994C9.76997 9.02935 8.53014 10.2692 7.00074 10.2692C5.47133 10.2692 4.23151 9.02935 4.23151 7.49994C4.23151 5.97054 5.47133 4.73071 7.00074 4.73071C8.53014 4.73071 9.76997 5.97054 9.76997 7.49994Z" fill="#F4F4F5"/>
    <path d="M7 0.5C7.32217 0.5 7.58334 0.761169 7.58334 1.08334V2.25001C7.58334 2.57218 7.32217 2.83335 7 2.83335C6.67784 2.83335 6.41667 2.57218 6.41667 2.25001L6.41667 1.08334C6.41667 0.761169 6.67783 0.5 7 0.5ZM2.04911 2.54904C2.27691 2.32124 2.64626 2.32124 2.87407 2.54904L3.70241 3.37738C3.93022 3.60519 3.93022 3.97454 3.70241 4.20235C3.4746 4.43016 3.10525 4.43016 2.87745 4.20235L2.04911 3.37401C1.8213 3.1462 1.8213 2.77685 2.04911 2.54904ZM11.9507 3.37401C12.1785 3.1462 12.1785 2.77685 11.9507 2.54904C11.7229 2.32124 11.3536 2.32124 11.1258 2.54904L10.2974 3.37738C10.0696 3.60519 10.0696 3.97454 10.2974 4.20235C10.5252 4.43016 10.8946 4.43016 11.1224 4.20235L11.9507 3.37401ZM6.10352e-05 7.49994C6.10352e-05 7.17777 0.261231 6.9166 0.583399 6.9166L1.75008 6.9166C2.07224 6.9166 2.33341 7.17777 2.33341 7.49994C2.33341 7.82211 2.07224 8.08328 1.75008 8.08328L0.583399 8.08328C0.261231 8.08328 6.10352e-05 7.82211 6.10352e-05 7.49994ZM12.25 6.9166C11.9279 6.9166 11.6667 7.17777 11.6667 7.49994C11.6667 7.82211 11.9279 8.08328 12.25 8.08328L13.4167 8.08328C13.7389 8.08328 14.0001 7.82211 14.0001 7.49994C14.0001 7.17777 13.7389 6.9166 13.4167 6.9166L12.25 6.9166ZM3.70241 10.7974C3.93022 11.0252 3.93022 11.3945 3.70241 11.6223L2.87407 12.4507C2.64626 12.6785 2.27691 12.6785 2.04911 12.4507C1.8213 12.2228 1.8213 11.8535 2.04911 11.6257L2.87745 10.7974C3.10525 10.5695 3.4746 10.5695 3.70241 10.7974ZM11.1224 10.7974C10.8946 10.5695 10.5252 10.5695 10.2974 10.7974C10.0696 11.0252 10.0696 11.3945 10.2974 11.6223L11.1258 12.4507C11.3536 12.6785 11.7229 12.6785 11.9507 12.4507C12.1785 12.2228 12.1785 11.8535 11.9507 11.6257L11.1224 10.7974ZM7 12.1666C7.32217 12.1666 7.58334 12.4278 7.58334 12.75L7.58334 13.9167C7.58334 14.2388 7.32217 14.5 7 14.5C6.67784 14.5 6.41667 14.2388 6.41667 13.9167L6.41667 12.75C6.41667 12.4278 6.67783 12.1666 7 12.1666ZM10.77 7.49994C10.77 9.58163 9.08243 11.2692 7.00074 11.2692C4.91905 11.2692 3.23151 9.58163 3.23151 7.49994C3.23151 5.41825 4.91905 3.73071 7.00074 3.73071C9.08243 3.73071 10.77 5.41825 10.77 7.49994ZM9.76997 7.49994C9.76997 9.02935 8.53014 10.2692 7.00074 10.2692C5.47133 10.2692 4.23151 9.02935 4.23151 7.49994C4.23151 5.97054 5.47133 4.73071 7.00074 4.73071C8.53014 4.73071 9.76997 5.97054 9.76997 7.49994Z" stroke="#E5E7EB"/>
</svg>
